<svg xmlns="http://www.w3.org/2000/svg" xmlns:xlink="http://www.w3.org/1999/xlink" viewBox="0 0 500 500"><defs><clipPath id="freepik--clip-path--inject-2"><path d="M278.92,175.5s-10.5,19.67-15.67,34-13.16,40-16.16,50.5-3.5,24.67-2.67,25.67,20.67-3.67,27.33-6.17,7.84-3.5,9-4.83-4.16-24-3.16-29,14.16-36.17,17.33-45.5,4.83-17.5,2.67-18.17S282.42,175.33,278.92,175.5Z" style="fill:#fff;stroke:#263238;stroke-linecap:round;stroke-linejoin:round"></path></clipPath><clipPath id="freepik--clip-path-2--inject-2"><path d="M260.92,173.5a252.85,252.85,0,0,0-11.67,22.83c-5.83,13-14.16,27.17-17.5,33.84a86.58,86.58,0,0,0-5,12.16s.17-14.66.84-23.66,2-18.84,1.66-20.84-23.16-4.83-32.83-8.16,2.17-15.5,5.5-15.5,20.33,1.5,25.83-.84,6.34-3.33,11.67-3.33S260.92,173.5,260.92,173.5Z" style="fill:#fff;stroke:#263238;stroke-linecap:round;stroke-linejoin:round"></path></clipPath><clipPath id="freepik--clip-path-3--inject-2"><path d="M292.34,153.5l-4.67-7.57c0-.21.06-.42.08-.64a.5.5,0,0,0-.39-.53l-9.95-2.22a.44.44,0,0,0-.23,0l-3.14-1a.49.49,0,0,0-.26-.15l-9.95-2.23a.5.5,0,0,0-.59.36c0,.14-.93,3.53-.56,5.31.4,2,3.11,3.72,5.7,3.72h.06c2.19,0,4.69-2,5.5-5.2a2.39,2.39,0,0,1,1.23-.16c.5.09,1,.68,1.3,1.2a11.21,11.21,0,0,0-.21,3.75c.4,2,3.1,3.73,5.7,3.73H282a5.88,5.88,0,0,0,4.78-3.34l4.45,5.83Z" style="fill:#263238;stroke:#263238;stroke-miterlimit:10;stroke-width:0.5px"></path></clipPath><clipPath id="freepik--clip-path-4--inject-2"><path d="M217.25,172.83a41.1,41.1,0,0,0-2.5,9,45,45,0,0,0,.17,9.34s-18.67-1.5-24-1.5-8.17-8.84-4.67-12.84,9-5.33,13.84-4.83S217.25,172.83,217.25,172.83Z" style="fill:#fff;stroke:#263238;stroke-linecap:round;stroke-linejoin:round"></path></clipPath><clipPath id="freepik--clip-path-5--inject-2"><path d="M236.59,220.83s-23.7,18.9-31.61,25c-9.1,7-14.34,10.28-12.89,12.67s12.42,11.05,17.69,13.43S236.59,220.83,236.59,220.83Z" style="fill:#fff;stroke:#263238;stroke-linecap:round;stroke-linejoin:round"></path></clipPath><clipPath id="freepik--clip-path-6--inject-2"><path d="M286.75,179.83s17.5,2.67,19.84,3.5,3.16,4.17,1.16,10.84-10.83,43.33-12.66,45.33-9.17,1-17.67-5.17-20.17-21.16-20.17-21.16l10.34-11.5,16.16,13.83,4.34-20.67" style="fill:#fff;stroke:#263238;stroke-linecap:round;stroke-linejoin:round"></path></clipPath></defs><g id="freepik--background-simple--inject-2"><path d="M404.68,150.19c-15.61-25.29-35.41-47.27-53.3-61-43-33.05-118.48-30.24-161.25,2.26-36.45,27.7-36.84,77.73-66,110.58-26.85,30.23-51.78,55.81-51.57,97.66C73,388.08,189.24,423,255,380.36c20.76-13.46,35.8-33,60-40.52,49.18-15.28,68.59-13.85,100.25-52.66C446.51,248.94,432,194.48,404.68,150.19Z" style="fill:#92E3A9"></path><path d="M404.68,150.19c-15.61-25.29-35.41-47.27-53.3-61-43-33.05-118.48-30.24-161.25,2.26-36.45,27.7-36.84,77.73-66,110.58-26.85,30.23-51.78,55.81-51.57,97.66C73,388.08,189.24,423,255,380.36c20.76-13.46,35.8-33,60-40.52,49.18-15.28,68.59-13.85,100.25-52.66C446.51,248.94,432,194.48,404.68,150.19Z" style="fill:#fff;opacity:0.8"></path></g><g id="freepik--dollar-signs--inject-2"><path d="M342.22,132.43V119.77a6.82,6.82,0,1,1,13.63,0v12.85c19.09,1.41,43.64,9.52,43.64,28.44a16.47,16.47,0,0,1-16.37,16.36c-13.65,0-13.24-18.89-27.27-18.89v33.7l11.3,2.14c24.74,4.68,42.08,14.61,42.08,42.27,0,25.32-17.54,47.33-53.38,49.48V305.4a6.82,6.82,0,1,1-13.63,0V286.12c-22.22-1.38-49.09-9.88-49.09-31a16.92,16.92,0,0,1,16.75-17c15.55,0,16.63,18.21,32.34,20.45V223.2l-11.69-2.34c-25.91-5.26-38.37-17.92-38.37-43.44C292.16,152.3,312.8,134.57,342.22,132.43Zm-1.37,56.88,1.37.19V157.75c-11.5,1.36-16.37,7.4-16.37,15.19C325.85,183.27,330.72,187.94,340.85,189.31Zm33.31,52.59c0-8.38-4.28-13.25-15.39-15.39l-2.92-.58v32.72C367.54,257.09,374.16,251.83,374.16,241.9Z" style="fill:#92E3A9"></path><path d="M119.17,292.88v-3.77a2,2,0,0,1,4.06,0v3.83c5.68.42,13,2.83,13,8.46a4.9,4.9,0,0,1-4.87,4.87c-4.07,0-3.95-5.62-8.12-5.62v10l3.36.64c7.36,1.39,12.52,4.34,12.52,12.58,0,7.53-5.21,14.08-15.88,14.72v5.74a2,2,0,0,1-4.06,0v-5.74c-6.61-.41-14.61-2.94-14.61-9.22a5,5,0,0,1,5-5c4.63,0,5,5.42,9.62,6.09V319.9l-3.48-.7c-7.71-1.57-11.42-5.33-11.42-12.93S110.42,293.52,119.17,292.88Zm-.4,16.93.4.06v-9.45c-3.42.4-4.87,2.2-4.87,4.52C114.3,308,115.75,309.4,118.77,309.81Zm9.91,15.65c0-2.49-1.28-3.94-4.58-4.58l-.87-.17v9.74C126.71,330,128.68,328.42,128.68,325.46Z" style="fill:#92E3A9"></path><path d="M180,346.11v-2.3a1.24,1.24,0,1,1,2.48,0v2.34c3.48.25,7.94,1.73,7.94,5.17a3,3,0,0,1-3,3c-2.49,0-2.41-3.44-5-3.44V357l2.06.39c4.5.85,7.66,2.66,7.66,7.69,0,4.61-3.19,8.62-9.72,9v3.5a1.24,1.24,0,0,1-2.48,0v-3.5c-4-.25-8.93-1.8-8.93-5.64a3.08,3.08,0,0,1,3.05-3.08c2.83,0,3,3.31,5.88,3.72v-6.45l-2.12-.43c-4.72-.95-7-3.26-7-7.9S174.61,346.5,180,346.11Zm-.24,10.35.24,0v-5.78c-2.09.25-3,1.35-3,2.76C177,355.36,177.87,356.21,179.72,356.46Zm6.06,9.57c0-1.52-.78-2.41-2.8-2.8l-.54-.11v6C184.57,368.8,185.78,367.84,185.78,366Z" style="fill:#92E3A9"></path><path d="M178.84,202.07V198.3a2,2,0,1,1,4,0v3.82c5.69.42,13,2.84,13,8.47a4.9,4.9,0,0,1-4.87,4.87c-4.06,0-3.94-5.63-8.12-5.63v10l3.37.64c7.36,1.39,12.52,4.35,12.52,12.58,0,7.54-5.22,14.09-15.89,14.73v5.73a2,2,0,1,1-4,0v-5.73c-6.62-.41-14.61-2.94-14.61-9.22a5,5,0,0,1,5-5.05c4.63,0,4.95,5.42,9.63,6.09V229.08l-3.48-.69c-7.71-1.57-11.42-5.34-11.42-12.93S170.08,202.7,178.84,202.07ZM178.43,219l.41.06V209.6c-3.42.41-4.87,2.21-4.87,4.52C174,217.2,175.42,218.59,178.43,219Zm9.91,15.66c0-2.5-1.27-4-4.58-4.58l-.87-.18v9.74C186.37,239.17,188.34,237.6,188.34,234.65Z" style="fill:#92E3A9"></path><g style="opacity:0.4"><path d="M342.22,132.43V119.77a6.82,6.82,0,1,1,13.63,0v12.85c19.09,1.41,43.64,9.52,43.64,28.44a16.47,16.47,0,0,1-16.37,16.36c-13.65,0-13.24-18.89-27.27-18.89v33.7l11.3,2.14c24.74,4.68,42.08,14.61,42.08,42.27,0,25.32-17.54,47.33-53.38,49.48V305.4a6.82,6.82,0,1,1-13.63,0V286.12c-22.22-1.38-49.09-9.88-49.09-31a16.92,16.92,0,0,1,16.75-17c15.55,0,16.63,18.21,32.34,20.45V223.2l-11.69-2.34c-25.91-5.26-38.37-17.92-38.37-43.44C292.16,152.3,312.8,134.57,342.22,132.43Zm-1.37,56.88,1.37.19V157.75c-11.5,1.36-16.37,7.4-16.37,15.19C325.85,183.27,330.72,187.94,340.85,189.31Zm33.31,52.59c0-8.38-4.28-13.25-15.39-15.39l-2.92-.58v32.72C367.54,257.09,374.16,251.83,374.16,241.9Z" style="fill:#fff"></path><path d="M119.17,292.88v-3.77a2,2,0,0,1,4.06,0v3.83c5.68.42,13,2.83,13,8.46a4.9,4.9,0,0,1-4.87,4.87c-4.07,0-3.95-5.62-8.12-5.62v10l3.36.64c7.36,1.39,12.52,4.34,12.52,12.58,0,7.53-5.21,14.08-15.88,14.72v5.74a2,2,0,0,1-4.06,0v-5.74c-6.61-.41-14.61-2.94-14.61-9.22a5,5,0,0,1,5-5c4.63,0,5,5.42,9.62,6.09V319.9l-3.48-.7c-7.71-1.57-11.42-5.33-11.42-12.93S110.42,293.52,119.17,292.88Zm-.4,16.93.4.06v-9.45c-3.42.4-4.87,2.2-4.87,4.52C114.3,308,115.75,309.4,118.77,309.81Zm9.91,15.65c0-2.49-1.28-3.94-4.58-4.58l-.87-.17v9.74C126.71,330,128.68,328.42,128.68,325.46Z" style="fill:#fff"></path><path d="M180,346.11v-2.3a1.24,1.24,0,1,1,2.48,0v2.34c3.48.25,7.94,1.73,7.94,5.17a3,3,0,0,1-3,3c-2.49,0-2.41-3.44-5-3.44V357l2.06.39c4.5.85,7.66,2.66,7.66,7.69,0,4.61-3.19,8.62-9.72,9v3.5a1.24,1.24,0,0,1-2.48,0v-3.5c-4-.25-8.93-1.8-8.93-5.64a3.08,3.08,0,0,1,3.05-3.08c2.83,0,3,3.31,5.88,3.72v-6.45l-2.12-.43c-4.72-.95-7-3.26-7-7.9S174.61,346.5,180,346.11Zm-.24,10.35.24,0v-5.78c-2.09.25-3,1.35-3,2.76C177,355.36,177.87,356.21,179.72,356.46Zm6.06,9.57c0-1.52-.78-2.41-2.8-2.8l-.54-.11v6C184.57,368.8,185.78,367.84,185.78,366Z" style="fill:#fff"></path><path d="M178.84,202.07V198.3a2,2,0,1,1,4,0v3.82c5.69.42,13,2.84,13,8.47a4.9,4.9,0,0,1-4.87,4.87c-4.06,0-3.94-5.63-8.12-5.63v10l3.37.64c7.36,1.39,12.52,4.35,12.52,12.58,0,7.54-5.22,14.09-15.89,14.73v5.73a2,2,0,1,1-4,0v-5.73c-6.62-.41-14.61-2.94-14.61-9.22a5,5,0,0,1,5-5.05c4.63,0,4.95,5.42,9.63,6.09V229.08l-3.48-.69c-7.71-1.57-11.42-5.34-11.42-12.93S170.08,202.7,178.84,202.07ZM178.43,219l.41.06V209.6c-3.42.41-4.87,2.21-4.87,4.52C174,217.2,175.42,218.59,178.43,219Zm9.91,15.66c0-2.5-1.27-4-4.58-4.58l-.87-.18v9.74C186.37,239.17,188.34,237.6,188.34,234.65Z" style="fill:#fff"></path></g></g><g id="freepik--Shadow--inject-2"><ellipse cx="250.76" cy="412.99" rx="49.94" ry="21.77" style="fill:#92E3A9"></ellipse><ellipse cx="250.76" cy="412.99" rx="49.94" ry="21.77" style="fill:#fff;opacity:0.5"></ellipse></g><g id="freepik--Character--inject-2"><path d="M240.62,396.89s-8.55,4.88-11.1,9.49-.16,5,5,3.18,12.73-13.34,12.73-13.34Z" style="fill:#fff;stroke:#263238;stroke-linecap:round;stroke-linejoin:round"></path><path d="M263,399s-5.5,11.95-6,17.35,4.58,5.57,7.56,1.92,3.7-19.8,3.7-19.8S263.78,400.58,263,399Z" style="fill:#fff;stroke:#263238;stroke-linecap:round;stroke-linejoin:round"></path><path d="M225.26,241s-7.58,17.85-12.84,32.12-6.47,52.24-6.17,55.23,32.62,67.74,34.37,68.57,6.64-.67,6.64-.67L227,321.54,237.3,284s-2.93,40.84-2.19,44.78,26.61,70.68,26.61,70.68,3.62,3.33,5.74,1.11a7.71,7.71,0,0,0,1.79-5.54s-5.44-44-6.14-51-4.56-22-4.56-22,15.39-50.13,15.56-55.17,0-16.92,0-16.92S234.92,247,225.26,241Z" style="fill:#263238;stroke:#263238;stroke-linecap:round;stroke-linejoin:round"></path><line x1="235.58" y1="289.31" x2="231.21" y2="265.11" style="fill:none;stroke:#fff;stroke-linecap:round;stroke-linejoin:round"></line><line x1="233.9" y1="282.25" x2="228.52" y2="274.52" style="fill:none;stroke:#fff;stroke-linecap:round;stroke-linejoin:round"></line><path d="M269.09,174s-4.5-.33-11.84-1.33-16.16-3-17.66-.34-15.24,67-15.24,69.49,15.74,7.68,25.74,9.68,22,3,23.5,1.67,19.33-66.34,19.66-68.17-2.16-4-5-5S269.09,174,269.09,174Z" style="fill:#92E3A9;stroke:#263238;stroke-linecap:round;stroke-linejoin:round"></path><path d="M278.92,175.5s-10.5,19.67-15.67,34-13.16,40-16.16,50.5-3.5,24.67-2.67,25.67,20.67-3.67,27.33-6.17,7.84-3.5,9-4.83-4.16-24-3.16-29,14.16-36.17,17.33-45.5,4.83-17.5,2.67-18.17S282.42,175.33,278.92,175.5Z" style="fill:#fff"></path><g style="clip-path:url(#freepik--clip-path--inject-2)"><path d="M289.82,213.54l-4.42-8.24s-28.31,42-30,44.35c-.85,1.18-2.28-2.18-3.51-5.53-2,6.43-3.71,12.13-4.78,15.88-3,10.5-3.5,24.67-2.67,25.67s20.67-3.67,27.33-6.17,7.84-3.5,9-4.83-4.16-24-3.16-29C278.28,242.2,284.82,226.17,289.82,213.54Z" style="opacity:0.2"></path><polyline points="272.24 253.01 253.9 256.67 253.08 259.94 271.01 257.08" style="fill:none;stroke:#263238;stroke-linecap:round;stroke-linejoin:round"></polyline></g><path d="M278.92,175.5s-10.5,19.67-15.67,34-13.16,40-16.16,50.5-3.5,24.67-2.67,25.67,20.67-3.67,27.33-6.17,7.84-3.5,9-4.83-4.16-24-3.16-29,14.16-36.17,17.33-45.5,4.83-17.5,2.67-18.17S282.42,175.33,278.92,175.5Z" style="fill:none;stroke:#263238;stroke-linecap:round;stroke-linejoin:round"></path><path d="M260.92,173.5a252.85,252.85,0,0,0-11.67,22.83c-5.83,13-14.16,27.17-17.5,33.84a86.58,86.58,0,0,0-5,12.16s.17-14.66.84-23.66,2-18.84,1.66-20.84-23.16-4.83-32.83-8.16,2.17-15.5,5.5-15.5,20.33,1.5,25.83-.84,6.34-3.33,11.67-3.33S260.92,173.5,260.92,173.5Z" style="fill:#fff"></path><g style="clip-path:url(#freepik--clip-path-2--inject-2)"><path d="M241.15,212.65c2.55-4.8,5.18-10,7.49-15l-13.3-4.81-7.07-11.11v9.09l-4.71-6.39-12.46-4.72-13.68-2.82c-4,3.79-7.76,10.44-1,12.77,9.67,3.33,32.5,6.16,32.83,8.16.21,1.27-.24,5.68-.78,11Z" style="opacity:0.2"></path></g><path d="M260.92,173.5a252.85,252.85,0,0,0-11.67,22.83c-5.83,13-14.16,27.17-17.5,33.84a86.58,86.58,0,0,0-5,12.16s.17-14.66.84-23.66,2-18.84,1.66-20.84-23.16-4.83-32.83-8.16,2.17-15.5,5.5-15.5,20.33,1.5,25.83-.84,6.34-3.33,11.67-3.33S260.92,173.5,260.92,173.5Z" style="fill:none;stroke:#263238;stroke-linecap:round;stroke-linejoin:round"></path><polyline points="229.03 186.57 229.25 197.83 224.14 186.16" style="fill:none;stroke:#263238;stroke-linecap:round;stroke-linejoin:round"></polyline><path d="M264.25,169.83s-3.33,1-3.83,2.5-.67,7.34-2.17,8.84-6.83,4.16-5.16,4.66,9.66-3.33,9.66-3.33,2.67-8.5,3.17-10.33S264.25,169.83,264.25,169.83Z" style="fill:#92E3A9;stroke:#263238;stroke-linecap:round;stroke-linejoin:round"></path><path d="M267.42,180s-1.5,12.83-.33,11.83,1.16-3.16,3-5.16,9.5-6.34,10.66-8.67,1.17-5.67.34-6.5a3.12,3.12,0,0,0-2-.83s-10.84,6.5-11.84,6.83S267.42,180,267.42,180Z" style="fill:#92E3A9;stroke:#263238;stroke-linecap:round;stroke-linejoin:round"></path><path d="M265.42,164.17s-1.67,7.33-2,9.66-2.33,14.34-2.33,14.34,6.16-8.17,6.83-8.67,10.83-5.33,11.5-7,4.5-12.33,4.5-12.33S272.09,166.67,265.42,164.17Z" style="fill:#fff;stroke:#263238;stroke-linecap:round;stroke-linejoin:round"></path><path d="M268.47,135.28s-5.74,14.76-6.36,19.27.62,12.51,6.15,14.35,13.12-3.69,14.76-5.33a32,32,0,0,0,3.28-4.1s5.95-7.38,7.18-9.84,5.33-9.23,3.69-14.35-12.51-6.56-18.45-5.74S268.47,135.28,268.47,135.28Z" style="fill:#fff;stroke:#263238;stroke-linecap:round;stroke-linejoin:round"></path><path d="M273.59,146.76s-4.71,1.64-5.12,2.87,2.66,2.87,2.66,2.87" style="fill:none;stroke:#263238;stroke-linecap:round;stroke-linejoin:round"></path><path d="M266.42,154.75s1,1.85,5.12,2.05a10.35,10.35,0,0,0,6.77-2.05s-3.35,5.75-5.4,7.19a4.06,4.06,0,0,1-4.13.26,9.2,9.2,0,0,0-.72-3.76Z" style="fill:none;stroke:#263238;stroke-linecap:round;stroke-linejoin:round"></path><path d="M276,158.58s-5.7,2.78-7.95-.14" style="fill:none;stroke:#263238;stroke-linecap:round;stroke-linejoin:round;stroke-width:0.5px"></path><line x1="277.2" y1="154.06" x2="279.77" y2="155.09" style="fill:none;stroke:#263238;stroke-linecap:round;stroke-linejoin:round"></line><path d="M267.48,132s-4.91,3.36-8.27-2.33c-3.56-6,10.9-10.55,25.66-7.89s16,10.67,15.17,16.2-7.79,15-7.79,15-1.23,2.25-2.25-.21,1.23-5.74,1.43-6.76-4.51-1.85-3.48-4.31,3.07-1.43,1.43-3.89-6.36-1.64-13.33-.41S262.56,136.88,267.48,132Z" style="fill:#263238;stroke:#263238;stroke-linecap:round;stroke-linejoin:round"></path><path d="M297.46,136.41a4,4,0,0,1,1.13,3.09" style="fill:none;stroke:#fff;stroke-linecap:round;stroke-linejoin:round;stroke-width:0.5px"></path><path d="M271.34,128.75s-5.75,3.25-1.25,5,10.75-4.25,19.5-1.75a18.83,18.83,0,0,1,6.31,2.92" style="fill:none;stroke:#fff;stroke-linecap:round;stroke-linejoin:round;stroke-width:0.5px"></path><path d="M285.84,129.25s11-.25,13.5,5.5" style="fill:none;stroke:#fff;stroke-linecap:round;stroke-linejoin:round;stroke-width:0.5px"></path><path d="M291.09,140.5s4,2.5,4.75,6" style="fill:none;stroke:#fff;stroke-linecap:round;stroke-linejoin:round;stroke-width:0.5px"></path><path d="M292.34,153.5l-4.67-7.57c0-.21.06-.42.08-.64a.5.5,0,0,0-.39-.53l-9.95-2.22a.44.44,0,0,0-.23,0l-3.14-1a.49.49,0,0,0-.26-.15l-9.95-2.23a.5.5,0,0,0-.59.36c0,.14-.93,3.53-.56,5.31.4,2,3.11,3.72,5.7,3.72h.06c2.19,0,4.69-2,5.5-5.2a2.39,2.39,0,0,1,1.23-.16c.5.09,1,.68,1.3,1.2a11.21,11.21,0,0,0-.21,3.75c.4,2,3.1,3.73,5.7,3.73H282a5.88,5.88,0,0,0,4.78-3.34l4.45,5.83Z" style="fill:#263238"></path><g style="clip-path:url(#freepik--clip-path-3--inject-2)"><path d="M287.48,146.88c-3.24,2.36-6,.75-8.83,0a5.46,5.46,0,0,0-2.46-.16,6.28,6.28,0,0,0,.07,1.47c.4,2,3.1,3.73,5.7,3.73H282a5.88,5.88,0,0,0,4.78-3.34h0A3,3,0,0,1,287.48,146.88Z" style="fill:#92E3A9"></path><path d="M262.68,144.89c.4,2,3.11,3.72,5.7,3.72h.06a6,6,0,0,0,4.94-3.69,6.19,6.19,0,0,0-.91.06c-4,.53-3.68-1.62-7.07-1.62a5.73,5.73,0,0,0-2.81.66A4.65,4.65,0,0,0,262.68,144.89Z" style="fill:#92E3A9"></path></g><path d="M292.34,153.5l-4.67-7.57c0-.21.06-.42.08-.64a.5.5,0,0,0-.39-.53l-9.95-2.22a.44.44,0,0,0-.23,0l-3.14-1a.49.49,0,0,0-.26-.15l-9.95-2.23a.5.5,0,0,0-.59.36c0,.14-.93,3.53-.56,5.31.4,2,3.11,3.72,5.7,3.72h.06c2.19,0,4.69-2,5.5-5.2a2.39,2.39,0,0,1,1.23-.16c.5.09,1,.68,1.3,1.2a11.21,11.21,0,0,0-.21,3.75c.4,2,3.1,3.73,5.7,3.73H282a5.88,5.88,0,0,0,4.78-3.34l4.45,5.83Z" style="fill:none;stroke:#263238;stroke-miterlimit:10;stroke-width:0.5px"></path><path d="M287.33,155.57s5.33-5.94,7-3.07-3.89,7.38-5.53,7.38a6,6,0,0,1-3.29-1.44" style="fill:#fff;stroke:#263238;stroke-linecap:round;stroke-linejoin:round"></path><path d="M214.92,191.17l2.67-10.67-4.86-.86S211,187.21,214.92,191.17Z" style="fill:#fff;stroke:#263238;stroke-linecap:round;stroke-linejoin:round"></path><path d="M217.25,187.67l5.84-7.34-5.5.17S216.09,185.17,217.25,187.67Z" style="fill:#fff;stroke:#263238;stroke-linecap:round;stroke-linejoin:round"></path><path d="M224.75,173.67s5.67-5,8.5-5.34a59.64,59.64,0,0,0,10.17-2.66c1.67-.67,3.14-1,2.37.68-1.1,2.37-4.87,3.15-4.87,3.15s9-2.33,10.33-1.83.5,2-.5,2.5-2.16,1.16-2.16,1.16,7.33-3,8-.83-4.67,3.83-4.67,3.83,3.17-.16,2.83,1.34-7.66,3.66-8.66,4.16a14.23,14.23,0,0,1-3.67.67s4.5,1.83,4.5,2.5.83,2.17-.67,2.5-1.66-1.17-4.33-2-4.83-.67-8.17-1.33a20.36,20.36,0,0,1-5.83-2.17l-11.83,3.17,2.5-9.84Z" style="fill:#fff;stroke:#263238;stroke-linecap:round;stroke-linejoin:round"></path><line x1="240.92" y1="169.5" x2="235.42" y2="171.33" style="fill:none;stroke:#263238;stroke-linecap:round;stroke-linejoin:round"></line><line x1="248.59" y1="171.33" x2="240.92" y2="173.5" style="fill:none;stroke:#263238;stroke-linecap:round;stroke-linejoin:round"></line><line x1="251.92" y1="174.33" x2="242.09" y2="176.67" style="fill:none;stroke:#263238;stroke-linecap:round;stroke-linejoin:round"></line><path d="M234.42,174a8.66,8.66,0,0,1-6,2.83" style="fill:none;stroke:#263238;stroke-linecap:round;stroke-linejoin:round"></path><path d="M221.42,173.17l-6.83-.5a45,45,0,0,0-1.5,5.5c-.67,3.16.16,9,.16,9l4,.5S219.59,178.5,221.42,173.17Z" style="fill:#fff;stroke:#263238;stroke-linecap:round;stroke-linejoin:round"></path><path d="M217.25,172.83a41.1,41.1,0,0,0-2.5,9,45,45,0,0,0,.17,9.34s-18.67-1.5-24-1.5-8.17-8.84-4.67-12.84,9-5.33,13.84-4.83S217.25,172.83,217.25,172.83Z" style="fill:#fff"></path><g style="clip-path:url(#freepik--clip-path-4--inject-2)"><path d="M192.59,183.43h-7.67c.67,3.27,2.91,6.24,6,6.24,5.33,0,24,1.5,24,1.5a45,45,0,0,1-.17-9.34S201.34,183.43,192.59,183.43Z" style="opacity:0.2"></path></g><path d="M217.25,172.83a41.1,41.1,0,0,0-2.5,9,45,45,0,0,0,.17,9.34s-18.67-1.5-24-1.5-8.17-8.84-4.67-12.84,9-5.33,13.84-4.83S217.25,172.83,217.25,172.83Z" style="fill:none;stroke:#263238;stroke-linecap:round;stroke-linejoin:round"></path><path d="M236.59,220.83s-23.7,18.9-31.61,25c-9.1,7-14.34,10.28-12.89,12.67s12.42,11.05,17.69,13.43S236.59,220.83,236.59,220.83Z" style="fill:#fff"></path><g style="clip-path:url(#freepik--clip-path-5--inject-2)"><path d="M236.59,220.83s-23.7,18.9-31.61,25c-9.1,7-14.34,10.28-12.89,12.67s12.42,11.05,17.69,13.43S236.59,220.83,236.59,220.83Z" style="opacity:0.2"></path></g><path d="M236.59,220.83s-23.7,18.9-31.61,25c-9.1,7-14.34,10.28-12.89,12.67s12.42,11.05,17.69,13.43S236.59,220.83,236.59,220.83Z" style="fill:none;stroke:#263238;stroke-linecap:round;stroke-linejoin:round"></path><path d="M238.62,186.77s-3.48-6.32-5.68-8.51-4.38-4.77-4.38-4.77l13-2.19s3.82,7.24,5.59,9.62a37.8,37.8,0,0,1,3.57,7.4Z" style="fill:#92E3A9;stroke:#263238;stroke-linecap:round;stroke-linejoin:round;stroke-width:0.5px"></path><path d="M240.17,173.88,232.82,175s5.41,7.09,6.7,10.44l8.51.91S242.1,175.42,240.17,173.88Z" style="fill:#92E3A9;stroke:#263238;stroke-linecap:round;stroke-linejoin:round;stroke-width:0.5px"></path><path d="M241.83,179.37c.73,1.18.64,2.57-.21,3.09s-2.13,0-2.86-1.18-.64-2.57.21-3.09S241.1,178.19,241.83,179.37Z" style="fill:#92E3A9;stroke:#263238;stroke-linecap:round;stroke-linejoin:round;stroke-width:0.5px"></path><path d="M239.56,184.92s-2.77-6.67-4.7-9.09-3.84-5.22-3.84-5.22l13.19-.75s3,7.62,4.49,10.17,2.74,7.75,2.74,7.75Z" style="fill:#92E3A9;stroke:#263238;stroke-linecap:round;stroke-linejoin:round;stroke-width:0.5px"></path><path d="M242.52,172.27l-7.44.34s4.61,7.65,5.52,11.12l8.36,1.83S244.27,174,242.52,172.27Z" style="fill:#92E3A9;stroke:#263238;stroke-linecap:round;stroke-linejoin:round;stroke-width:0.5px"></path><path d="M243.57,177.91c.59,1.26.35,2.62-.55,3.05s-2.12-.24-2.71-1.49-.36-2.62.54-3.05S243,176.66,243.57,177.91Z" style="fill:#92E3A9;stroke:#263238;stroke-linecap:round;stroke-linejoin:round;stroke-width:0.5px"></path><path d="M243.58,186.87s-2.06-6.91-3.73-9.52-3.27-5.59-3.27-5.59l13.19.63s2.19,7.89,3.41,10.58,1.91,8,1.91,8Z" style="fill:#92E3A9;stroke:#263238;stroke-linecap:round;stroke-linejoin:round;stroke-width:0.5px"></path><path d="M247.83,174.6l-7.42-.43s3.78,8.09,4.32,11.64l8.13,2.69S249.39,176.53,247.83,174.6Z" style="fill:#92E3A9;stroke:#263238;stroke-linecap:round;stroke-linejoin:round;stroke-width:0.5px"></path><path d="M248.29,180.33c.46,1.31.08,2.64-.86,3s-2.08-.46-2.54-1.77-.08-2.64.86-3S247.83,179,248.29,180.33Z" style="fill:#92E3A9;stroke:#263238;stroke-linecap:round;stroke-linejoin:round;stroke-width:0.5px"></path><path d="M263.42,198.83a86.1,86.1,0,0,1-5.33-7.33c-.84-1.67.66-3.33-2-6.17s-4.67-4.5-5.17-5.66-1.67-.84-2.33.5.5,3.5,1.5,4a6.1,6.1,0,0,1,1.83,1.66s-5.17-1.5-6.67-1.83-8.83-3.33-10-3.5-3.66-.67-3.33,1.33,3,3,3,3,.33,4.5,2.17,7.17,5,3.67,7.5,5,9,2.33,9,2.33l4.83,6.5Z" style="fill:#fff;stroke:#263238;stroke-linecap:round;stroke-linejoin:round"></path><path d="M234.92,184.83s4.42,3.18,6.35,4.6a9.19,9.19,0,0,0,3.36,1.68" style="fill:none;stroke:#263238;stroke-linecap:round;stroke-linejoin:round"></path><path d="M235.6,188.27s2.58,2.19,4.13,3.48a12.76,12.76,0,0,0,4.51,1.93" style="fill:none;stroke:#263238;stroke-linecap:round;stroke-linejoin:round"></path><polygon points="267.75 202.67 263.59 197.83 255.25 208.5 258.92 212.5 267.75 202.67" style="fill:#fff;stroke:#263238;stroke-linecap:round;stroke-linejoin:round"></polygon><path d="M286.75,179.83s17.5,2.67,19.84,3.5,3.16,4.17,1.16,10.84-10.83,43.33-12.66,45.33-9.17,1-17.67-5.17-20.17-21.16-20.17-21.16l10.34-11.5,16.16,13.83,4.34-20.67" style="fill:#fff"></path><g style="clip-path:url(#freepik--clip-path-6--inject-2)"><path d="M295.09,239.5c1.83-2,10.66-38.67,12.66-45.33s1.17-10-1.16-10.84l-.19-.06c-1.56,6-8.55,33-9.45,39.88-1,7.74-3.37,10.1-16.16,5-10.28-4.06-19.91-12.25-23.29-15.31l-.25.28s11.67,15,20.17,21.16S293.25,241.5,295.09,239.5Z" style="opacity:0.2"></path></g><path d="M286.75,179.83s17.5,2.67,19.84,3.5,3.16,4.17,1.16,10.84-10.83,43.33-12.66,45.33-9.17,1-17.67-5.17-20.17-21.16-20.17-21.16l10.34-11.5,16.16,13.83,4.34-20.67" style="fill:none;stroke:#263238;stroke-linecap:round;stroke-linejoin:round"></path><path d="M283.75,215.5s8.84,5.67,10.5,6" style="fill:#fff;stroke:#263238;stroke-linecap:round;stroke-linejoin:round"></path></g><g id="freepik--Money--inject-2"><polygon points="185.88 137.18 181.34 148.22 202.85 152.7 206.79 142.64 185.88 137.18" style="fill:#92E3A9;stroke:#263238;stroke-linecap:round;stroke-linejoin:round;stroke-width:0.5px"></polygon><polygon points="188.28 139.54 185.09 147.29 200.2 150.44 202.96 143.37 188.28 139.54" style="fill:#92E3A9;stroke:#263238;stroke-linecap:round;stroke-linejoin:round;stroke-width:0.5px"></polygon><path d="M196.91,143.83a2.69,2.69,0,1,1-3.42-1.31A2.58,2.58,0,0,1,196.91,143.83Z" style="fill:#92E3A9;stroke:#263238;stroke-linecap:round;stroke-linejoin:round;stroke-width:0.5px"></path><polygon points="153.13 161.22 163.32 168.43 178.28 153.7 168.89 147.29 153.13 161.22" style="fill:#92E3A9;stroke:#263238;stroke-linecap:round;stroke-linejoin:round;stroke-width:0.5px"></polygon><polygon points="156.87 160.21 164.03 165.28 174.53 154.93 167.94 150.43 156.87 160.21" style="fill:#92E3A9;stroke:#263238;stroke-linecap:round;stroke-linejoin:round;stroke-width:0.5px"></polygon><path d="M165.64,155.16c1.66.05,3,1.08,3,2.31s-1.38,2.18-3,2.13-3-1.08-2.95-2.31S164,155.11,165.64,155.16Z" style="fill:#92E3A9;stroke:#263238;stroke-linecap:round;stroke-linejoin:round;stroke-width:0.5px"></path><polygon points="130.3 187.3 142.6 189.42 149.76 169.7 138.53 167.94 130.3 187.3" style="fill:#92E3A9;stroke:#263238;stroke-linecap:round;stroke-linejoin:round;stroke-width:0.5px"></polygon><polygon points="133.24 184.78 141.88 186.27 146.92 172.42 139.03 171.19 133.24 184.78" style="fill:#92E3A9;stroke:#263238;stroke-linecap:round;stroke-linejoin:round;stroke-width:0.5px"></polygon><path d="M139,176.45c1.51-.67,3.15-.3,3.66.81s-.31,2.57-1.83,3.23-3.15.3-3.66-.81S137.47,177.11,139,176.45Z" style="fill:#92E3A9;stroke:#263238;stroke-linecap:round;stroke-linejoin:round;stroke-width:0.5px"></path><polygon points="129.29 111.64 137.15 121.33 155.53 111.21 148.23 102.49 129.29 111.64" style="fill:#92E3A9;stroke:#263238;stroke-linecap:round;stroke-linejoin:round;stroke-width:0.5px"></polygon><polygon points="133.16 111.68 138.68 118.49 151.59 111.38 146.47 105.26 133.16 111.68" style="fill:#92E3A9;stroke:#263238;stroke-linecap:round;stroke-linejoin:round;stroke-width:0.5px"></polygon><path d="M143,109.19c1.58.5,2.57,1.85,2.22,3s-1.92,1.72-3.5,1.22-2.57-1.85-2.22-3S141.39,108.69,143,109.19Z" style="fill:#92E3A9;stroke:#263238;stroke-linecap:round;stroke-linejoin:round;stroke-width:0.5px"></path><polygon points="151.16 250.67 162.59 246.12 154.04 226.97 143.73 231.26 151.16 250.67" style="fill:#92E3A9;stroke:#263238;stroke-linecap:round;stroke-linejoin:round;stroke-width:0.5px"></polygon><polygon points="151.7 247.2 159.73 244 153.72 230.55 146.48 233.57 151.7 247.2" style="fill:#92E3A9;stroke:#263238;stroke-linecap:round;stroke-linejoin:round;stroke-width:0.5px"></polygon><ellipse cx="152.48" cy="238.86" rx="2.7" ry="2.46" transform="translate(-126.47 188.93) rotate(-47.3)" style="fill:#92E3A9;stroke:#263238;stroke-linecap:round;stroke-linejoin:round;stroke-width:0.5px"></ellipse><polygon points="225.58 119.21 237.87 118.58 235.94 97.7 224.8 98.44 225.58 119.21" style="fill:#92E3A9;stroke:#263238;stroke-linecap:round;stroke-linejoin:round;stroke-width:0.5px"></polygon><polygon points="227.21 116.1 235.84 115.66 234.49 100.99 226.66 101.51 227.21 116.1" style="fill:#92E3A9;stroke:#263238;stroke-linecap:round;stroke-linejoin:round;stroke-width:0.5px"></polygon><path d="M228.9,106.67a2.74,2.74,0,0,1,3.74,0,2.45,2.45,0,0,1-.29,3.56,2.72,2.72,0,0,1-3.73,0A2.46,2.46,0,0,1,228.9,106.67Z" style="fill:#92E3A9;stroke:#263238;stroke-linecap:round;stroke-linejoin:round;stroke-width:0.5px"></path><polygon points="326.87 167.94 329.74 179.91 349.92 174.18 347.14 163.37 326.87 167.94" style="fill:#92E3A9;stroke:#263238;stroke-linecap:round;stroke-linejoin:round;stroke-width:0.5px"></polygon><polygon points="330.23 168.97 332.24 177.38 346.42 173.35 344.47 165.76 330.23 168.97" style="fill:#92E3A9;stroke:#263238;stroke-linecap:round;stroke-linejoin:round;stroke-width:0.5px"></polygon><path d="M339.81,168.91a2.72,2.72,0,0,1,.68,3.67,2.45,2.45,0,0,1-3.55.38,2.75,2.75,0,0,1-.69-3.68A2.47,2.47,0,0,1,339.81,168.91Z" style="fill:#92E3A9;stroke:#263238;stroke-linecap:round;stroke-linejoin:round;stroke-width:0.5px"></path><polygon points="327.13 142.38 339.42 142.98 339.58 122 328.42 121.64 327.13 142.38" style="fill:#92E3A9;stroke:#263238;stroke-linecap:round;stroke-linejoin:round;stroke-width:0.5px"></polygon><polygon points="329.06 139.44 337.69 139.87 337.81 125.13 329.97 124.88 329.06 139.44" style="fill:#92E3A9;stroke:#263238;stroke-linecap:round;stroke-linejoin:round;stroke-width:0.5px"></polygon><path d="M331.69,130.23a2.72,2.72,0,0,1,3.71.37,2.45,2.45,0,0,1-.64,3.52,2.72,2.72,0,0,1-3.71-.37A2.45,2.45,0,0,1,331.69,130.23Z" style="fill:#92E3A9;stroke:#263238;stroke-linecap:round;stroke-linejoin:round;stroke-width:0.5px"></path><polygon points="344.62 283.95 356.9 284.55 357.06 263.58 345.91 263.21 344.62 283.95" style="fill:#92E3A9;stroke:#263238;stroke-linecap:round;stroke-linejoin:round;stroke-width:0.5px"></polygon><polygon points="346.55 281.02 355.18 281.44 355.29 266.71 347.45 266.45 346.55 281.02" style="fill:#92E3A9;stroke:#263238;stroke-linecap:round;stroke-linejoin:round;stroke-width:0.5px"></polygon><path d="M349.17,271.81a2.73,2.73,0,0,1,3.72.37,2.45,2.45,0,0,1-.64,3.51,2.74,2.74,0,0,1-3.72-.36A2.46,2.46,0,0,1,349.17,271.81Z" style="fill:#92E3A9;stroke:#263238;stroke-linecap:round;stroke-linejoin:round;stroke-width:0.5px"></path><polygon points="364.76 253.2 377.04 253.8 377.2 232.82 366.05 232.46 364.76 253.2" style="fill:#92E3A9;stroke:#263238;stroke-linecap:round;stroke-linejoin:round;stroke-width:0.5px"></polygon><polygon points="366.69 250.27 375.32 250.69 375.43 235.95 367.59 235.7 366.69 250.27" style="fill:#92E3A9;stroke:#263238;stroke-linecap:round;stroke-linejoin:round;stroke-width:0.5px"></polygon><path d="M369.31,241.06a2.74,2.74,0,0,1,3.72.36,2.46,2.46,0,0,1-.64,3.52,2.73,2.73,0,0,1-3.72-.37A2.45,2.45,0,0,1,369.31,241.06Z" style="fill:#92E3A9;stroke:#263238;stroke-linecap:round;stroke-linejoin:round;stroke-width:0.5px"></path><polygon points="287.62 275.85 296.83 284.01 310.09 267.76 301.62 260.49 287.62 275.85" style="fill:#92E3A9;stroke:#263238;stroke-linecap:round;stroke-linejoin:round;stroke-width:0.5px"></polygon><polygon points="290.96 274.77 297.43 280.51 306.75 269.09 300.8 263.98 290.96 274.77" style="fill:#92E3A9;stroke:#263238;stroke-linecap:round;stroke-linejoin:round;stroke-width:0.5px"></polygon><path d="M298.78,269.23a2.74,2.74,0,0,1,2.67,2.62,2.45,2.45,0,0,1-2.7,2.34,2.72,2.72,0,0,1-2.67-2.61A2.46,2.46,0,0,1,298.78,269.23Z" style="fill:#92E3A9;stroke:#263238;stroke-linecap:round;stroke-linejoin:round;stroke-width:0.5px"></path><polygon points="89.53 164.22 98.74 172.38 112 156.13 103.53 148.86 89.53 164.22" style="fill:#92E3A9;stroke:#263238;stroke-linecap:round;stroke-linejoin:round;stroke-width:0.5px"></polygon><polygon points="92.87 163.14 99.34 168.88 108.66 157.46 102.7 152.35 92.87 163.14" style="fill:#92E3A9;stroke:#263238;stroke-linecap:round;stroke-linejoin:round;stroke-width:0.5px"></polygon><path d="M100.69,157.6a2.74,2.74,0,0,1,2.67,2.62,2.45,2.45,0,0,1-2.7,2.34A2.72,2.72,0,0,1,98,160,2.46,2.46,0,0,1,100.69,157.6Z" style="fill:#92E3A9;stroke:#263238;stroke-linecap:round;stroke-linejoin:round;stroke-width:0.5px"></path><polygon points="112.23 291.6 124.43 293.19 126.3 272.3 115.2 271.03 112.23 291.6" style="fill:#92E3A9;stroke:#263238;stroke-linecap:round;stroke-linejoin:round;stroke-width:0.5px"></polygon><polygon points="114.39 288.83 122.97 289.95 124.27 275.28 116.48 274.38 114.39 288.83" style="fill:#92E3A9;stroke:#263238;stroke-linecap:round;stroke-linejoin:round;stroke-width:0.5px"></polygon><path d="M117.76,279.86a2.73,2.73,0,0,1,3.68.67,2.46,2.46,0,0,1-.93,3.46,2.73,2.73,0,0,1-3.67-.67A2.46,2.46,0,0,1,117.76,279.86Z" style="fill:#92E3A9;stroke:#263238;stroke-linecap:round;stroke-linejoin:round;stroke-width:0.5px"></path><polygon points="138.18 340.1 150.38 341.7 152.24 320.81 141.15 319.54 138.18 340.1" style="fill:#92E3A9;stroke:#263238;stroke-linecap:round;stroke-linejoin:round;stroke-width:0.5px"></polygon><polygon points="140.34 337.34 148.91 338.46 150.22 323.78 142.43 322.89 140.34 337.34" style="fill:#92E3A9;stroke:#263238;stroke-linecap:round;stroke-linejoin:round;stroke-width:0.5px"></polygon><path d="M143.71,328.37a2.72,2.72,0,0,1,3.67.67,2.45,2.45,0,0,1-.92,3.45,2.73,2.73,0,0,1-3.68-.67A2.46,2.46,0,0,1,143.71,328.37Z" style="fill:#92E3A9;stroke:#263238;stroke-linecap:round;stroke-linejoin:round;stroke-width:0.5px"></path><polygon points="304.76 347.17 316.96 348.76 318.83 327.87 307.74 326.6 304.76 347.17" style="fill:#92E3A9;stroke:#263238;stroke-linecap:round;stroke-linejoin:round;stroke-width:0.5px"></polygon><polygon points="306.93 344.4 315.5 345.52 316.81 330.85 309.02 329.95 306.93 344.4" style="fill:#92E3A9;stroke:#263238;stroke-linecap:round;stroke-linejoin:round;stroke-width:0.5px"></polygon><path d="M310.29,335.43a2.73,2.73,0,0,1,3.68.67,2.46,2.46,0,0,1-.92,3.46,2.75,2.75,0,0,1-3.68-.67A2.46,2.46,0,0,1,310.29,335.43Z" style="fill:#92E3A9;stroke:#263238;stroke-linecap:round;stroke-linejoin:round;stroke-width:0.5px"></path><polygon points="314.72 215.51 317.59 227.48 337.76 221.75 334.99 210.94 314.72 215.51" style="fill:#92E3A9;stroke:#263238;stroke-linecap:round;stroke-linejoin:round;stroke-width:0.5px"></polygon><polygon points="318.07 216.54 320.09 224.95 334.26 220.93 332.31 213.33 318.07 216.54" style="fill:#92E3A9;stroke:#263238;stroke-linecap:round;stroke-linejoin:round;stroke-width:0.5px"></polygon><path d="M327.65,216.48a2.74,2.74,0,0,1,.69,3.68,2.47,2.47,0,0,1-3.56.37,2.73,2.73,0,0,1-.68-3.68A2.46,2.46,0,0,1,327.65,216.48Z" style="fill:#92E3A9;stroke:#263238;stroke-linecap:round;stroke-linejoin:round;stroke-width:0.5px"></path><polygon points="161.86 292.22 164.73 304.19 184.91 298.46 182.13 287.65 161.86 292.22" style="fill:#92E3A9;stroke:#263238;stroke-linecap:round;stroke-linejoin:round;stroke-width:0.5px"></polygon><polygon points="165.22 293.25 167.23 301.66 181.41 297.64 179.46 290.04 165.22 293.25" style="fill:#92E3A9;stroke:#263238;stroke-linecap:round;stroke-linejoin:round;stroke-width:0.5px"></polygon><path d="M174.8,293.19a2.74,2.74,0,0,1,.68,3.68,2.46,2.46,0,0,1-3.55.37,2.73,2.73,0,0,1-.69-3.67A2.46,2.46,0,0,1,174.8,293.19Z" style="fill:#92E3A9;stroke:#263238;stroke-linecap:round;stroke-linejoin:round;stroke-width:0.5px"></path><polygon points="217.91 145.75 209.59 154.31 227.89 166.47 235.28 158.59 217.91 145.75" style="fill:#92E3A9;stroke:#263238;stroke-linecap:round;stroke-linejoin:round;stroke-width:0.5px"></polygon><polygon points="219.25 148.83 213.41 154.85 226.27 163.39 231.46 157.85 219.25 148.83" style="fill:#92E3A9;stroke:#263238;stroke-linecap:round;stroke-linejoin:round;stroke-width:0.5px"></polygon><ellipse cx="222.99" cy="156.02" rx="2.68" ry="2.48" style="fill:#92E3A9;stroke:#263238;stroke-linecap:round;stroke-linejoin:round;stroke-width:0.5px"></ellipse><polygon points="200.13 153.43 195.59 164.47 217.1 168.95 221.04 158.89 200.13 153.43" style="fill:#92E3A9;stroke:#263238;stroke-linecap:round;stroke-linejoin:round;stroke-width:0.5px"></polygon><polygon points="202.53 155.79 199.34 163.54 214.45 166.69 217.21 159.62 202.53 155.79" style="fill:#92E3A9;stroke:#263238;stroke-linecap:round;stroke-linejoin:round;stroke-width:0.5px"></polygon><path d="M211.16,160.08a2.69,2.69,0,1,1-3.42-1.31A2.58,2.58,0,0,1,211.16,160.08Z" style="fill:#92E3A9;stroke:#263238;stroke-linecap:round;stroke-linejoin:round;stroke-width:0.5px"></path></g></svg>